<mxfile host="app.diagrams.net" modified="2023-01-30T12:58:35.330Z" agent="5.0 (Windows NT 10.0; Win64; x64) AppleWebKit/537.36 (KHTML, like Gecko) Chrome/109.0.0.0 Safari/537.36" etag="lRPv6g6eBrB7k5RwhGuw" version="20.8.13" type="github">
  <diagram name="Page-1" id="03018318-947c-dd8e-b7a3-06fadd420f32">
    <mxGraphModel dx="1120" dy="452" grid="0" gridSize="10" guides="1" tooltips="1" connect="1" arrows="1" fold="1" page="1" pageScale="1" pageWidth="1100" pageHeight="850" background="none" math="0" shadow="0">
      <root>
        <mxCell id="0" />
        <mxCell id="1" parent="0" />
        <mxCell id="677b7b8949515195-2" value="LOGO" style="whiteSpace=wrap;html=1;rounded=0;shadow=0;labelBackgroundColor=none;strokeWidth=1;fontFamily=Verdana;fontSize=28;align=center;comic=1;fillColor=none;strokeColor=none;" parent="1" vertex="1">
          <mxGeometry x="455" y="70" width="190" height="50" as="geometry" />
        </mxCell>
        <mxCell id="677b7b8949515195-11" value="about us" style="text;html=1;points=[];align=left;verticalAlign=top;spacingTop=-4;fontSize=14;fontFamily=Verdana" parent="1" vertex="1">
          <mxGeometry x="240" y="135" width="60" height="20" as="geometry" />
        </mxCell>
        <mxCell id="677b7b8949515195-12" value="contact us" style="text;html=1;points=[];align=left;verticalAlign=top;spacingTop=-4;fontSize=14;fontFamily=Verdana" parent="1" vertex="1">
          <mxGeometry x="800" y="135" width="60" height="20" as="geometry" />
        </mxCell>
        <mxCell id="677b7b8949515195-13" value="job specification" style="text;html=1;points=[];align=left;verticalAlign=top;spacingTop=-4;fontSize=14;fontFamily=Verdana" parent="1" vertex="1">
          <mxGeometry x="430" y="135" width="60" height="20" as="geometry" />
        </mxCell>
        <mxCell id="677b7b8949515195-14" value="existing trainees" style="text;html=1;points=[];align=left;verticalAlign=top;spacingTop=-4;fontSize=14;fontFamily=Verdana" parent="1" vertex="1">
          <mxGeometry x="560" y="135" width="60" height="20" as="geometry" />
        </mxCell>
        <mxCell id="JIK_EkyT1b8QruOf0Ubo-1" value="qualifications" style="text;html=1;points=[];align=left;verticalAlign=top;spacingTop=-4;fontSize=14;fontFamily=Verdana" parent="1" vertex="1">
          <mxGeometry x="320" y="135" width="60" height="20" as="geometry" />
        </mxCell>
        <mxCell id="JIK_EkyT1b8QruOf0Ubo-7" value="image for header" style="text;html=1;strokeColor=none;fillColor=none;align=center;verticalAlign=middle;whiteSpace=wrap;rounded=0;" parent="1" vertex="1">
          <mxGeometry x="350" y="200" width="400" height="30" as="geometry" />
        </mxCell>
        <mxCell id="JIK_EkyT1b8QruOf0Ubo-8" value="about us" style="rounded=0;whiteSpace=wrap;html=1;fillColor=none;" parent="1" vertex="1">
          <mxGeometry x="490" y="280" width="120" height="20" as="geometry" />
        </mxCell>
        <mxCell id="JIK_EkyT1b8QruOf0Ubo-10" value="text" style="rounded=0;whiteSpace=wrap;html=1;fillColor=none;" parent="1" vertex="1">
          <mxGeometry x="330" y="320" width="440" height="80" as="geometry" />
        </mxCell>
        <mxCell id="JIK_EkyT1b8QruOf0Ubo-11" value="qualifications" style="rounded=0;whiteSpace=wrap;html=1;fillColor=none;" parent="1" vertex="1">
          <mxGeometry x="490" y="580" width="120" height="20" as="geometry" />
        </mxCell>
        <mxCell id="JIK_EkyT1b8QruOf0Ubo-12" value="text" style="rounded=0;whiteSpace=wrap;html=1;fillColor=none;" parent="1" vertex="1">
          <mxGeometry x="330" y="620" width="440" height="80" as="geometry" />
        </mxCell>
        <mxCell id="JIK_EkyT1b8QruOf0Ubo-14" value="Job specification" style="rounded=0;whiteSpace=wrap;html=1;fillColor=none;" parent="1" vertex="1">
          <mxGeometry x="490" y="430" width="120" height="20" as="geometry" />
        </mxCell>
        <mxCell id="JIK_EkyT1b8QruOf0Ubo-15" value="text" style="rounded=0;whiteSpace=wrap;html=1;fillColor=none;" parent="1" vertex="1">
          <mxGeometry x="330" y="470" width="440" height="80" as="geometry" />
        </mxCell>
        <mxCell id="JIK_EkyT1b8QruOf0Ubo-16" value="existing trainees" style="rounded=0;whiteSpace=wrap;html=1;fillColor=none;" parent="1" vertex="1">
          <mxGeometry x="490" y="870" width="120" height="20" as="geometry" />
        </mxCell>
        <mxCell id="JIK_EkyT1b8QruOf0Ubo-17" value="image" style="rounded=0;whiteSpace=wrap;html=1;fillColor=none;" parent="1" vertex="1">
          <mxGeometry x="360" y="910" width="80" height="80" as="geometry" />
        </mxCell>
        <mxCell id="JIK_EkyT1b8QruOf0Ubo-18" value="image" style="rounded=0;whiteSpace=wrap;html=1;fillColor=none;" parent="1" vertex="1">
          <mxGeometry x="460" y="910" width="80" height="80" as="geometry" />
        </mxCell>
        <mxCell id="JIK_EkyT1b8QruOf0Ubo-19" value="image" style="rounded=0;whiteSpace=wrap;html=1;fillColor=none;" parent="1" vertex="1">
          <mxGeometry x="560" y="910" width="80" height="80" as="geometry" />
        </mxCell>
        <mxCell id="JIK_EkyT1b8QruOf0Ubo-20" value="image" style="rounded=0;whiteSpace=wrap;html=1;fillColor=none;" parent="1" vertex="1">
          <mxGeometry x="660" y="910" width="80" height="80" as="geometry" />
        </mxCell>
        <mxCell id="JIK_EkyT1b8QruOf0Ubo-29" value="contact form" style="rounded=0;whiteSpace=wrap;html=1;fillColor=none;" parent="1" vertex="1">
          <mxGeometry x="490" y="1358" width="120" height="20" as="geometry" />
        </mxCell>
        <mxCell id="JIK_EkyT1b8QruOf0Ubo-31" value="first name" style="rounded=0;whiteSpace=wrap;html=1;fillColor=none;" parent="1" vertex="1">
          <mxGeometry x="424" y="1399" width="120" height="20" as="geometry" />
        </mxCell>
        <mxCell id="JIK_EkyT1b8QruOf0Ubo-32" value="text box" style="rounded=0;whiteSpace=wrap;html=1;fillColor=none;" parent="1" vertex="1">
          <mxGeometry x="557" y="1399" width="120" height="20" as="geometry" />
        </mxCell>
        <mxCell id="JIK_EkyT1b8QruOf0Ubo-33" value="last name" style="rounded=0;whiteSpace=wrap;html=1;fillColor=none;" parent="1" vertex="1">
          <mxGeometry x="424" y="1433" width="120" height="20" as="geometry" />
        </mxCell>
        <mxCell id="JIK_EkyT1b8QruOf0Ubo-34" value="text box" style="rounded=0;whiteSpace=wrap;html=1;fillColor=none;" parent="1" vertex="1">
          <mxGeometry x="557" y="1433" width="120" height="20" as="geometry" />
        </mxCell>
        <mxCell id="JIK_EkyT1b8QruOf0Ubo-37" value="information" style="rounded=0;whiteSpace=wrap;html=1;fillColor=none;" parent="1" vertex="1">
          <mxGeometry x="490" y="1593" width="120" height="20" as="geometry" />
        </mxCell>
        <mxCell id="JIK_EkyT1b8QruOf0Ubo-39" value="&lt;div&gt;Github&lt;/div&gt;&lt;div&gt;Address: 111 Canal Street, Nottingham, NG1 7HB&lt;/div&gt;&lt;div&gt;Telephone: +44 07324 432423&lt;/div&gt;" style="text;html=1;strokeColor=none;fillColor=none;align=center;verticalAlign=middle;whiteSpace=wrap;rounded=0;" parent="1" vertex="1">
          <mxGeometry x="395" y="1653" width="310" height="30" as="geometry" />
        </mxCell>
        <mxCell id="JIK_EkyT1b8QruOf0Ubo-40" value="name" style="rounded=0;whiteSpace=wrap;html=1;fillColor=none;" parent="1" vertex="1">
          <mxGeometry x="360" y="1000" width="80" height="20" as="geometry" />
        </mxCell>
        <mxCell id="JIK_EkyT1b8QruOf0Ubo-41" value="name" style="rounded=0;whiteSpace=wrap;html=1;fillColor=none;" parent="1" vertex="1">
          <mxGeometry x="460" y="1000" width="80" height="20" as="geometry" />
        </mxCell>
        <mxCell id="JIK_EkyT1b8QruOf0Ubo-42" value="name" style="rounded=0;whiteSpace=wrap;html=1;fillColor=none;" parent="1" vertex="1">
          <mxGeometry x="560" y="1000" width="80" height="20" as="geometry" />
        </mxCell>
        <mxCell id="JIK_EkyT1b8QruOf0Ubo-43" value="name" style="rounded=0;whiteSpace=wrap;html=1;fillColor=none;" parent="1" vertex="1">
          <mxGeometry x="660" y="1000" width="80" height="20" as="geometry" />
        </mxCell>
        <mxCell id="1O3x2wAnk1VwRl7zVLgC-11" value="image" style="rounded=0;whiteSpace=wrap;html=1;fillColor=none;" parent="1" vertex="1">
          <mxGeometry x="410" y="720" width="80" height="80" as="geometry" />
        </mxCell>
        <mxCell id="1O3x2wAnk1VwRl7zVLgC-12" value="image" style="rounded=0;whiteSpace=wrap;html=1;fillColor=none;" parent="1" vertex="1">
          <mxGeometry x="510" y="720" width="80" height="80" as="geometry" />
        </mxCell>
        <mxCell id="1O3x2wAnk1VwRl7zVLgC-13" value="image" style="rounded=0;whiteSpace=wrap;html=1;fillColor=none;" parent="1" vertex="1">
          <mxGeometry x="610" y="720" width="80" height="80" as="geometry" />
        </mxCell>
        <mxCell id="1O3x2wAnk1VwRl7zVLgC-14" value="name" style="rounded=0;whiteSpace=wrap;html=1;fillColor=none;" parent="1" vertex="1">
          <mxGeometry x="410" y="810" width="80" height="20" as="geometry" />
        </mxCell>
        <mxCell id="1O3x2wAnk1VwRl7zVLgC-15" value="name" style="rounded=0;whiteSpace=wrap;html=1;fillColor=none;" parent="1" vertex="1">
          <mxGeometry x="510" y="810" width="80" height="20" as="geometry" />
        </mxCell>
        <mxCell id="1O3x2wAnk1VwRl7zVLgC-16" value="name" style="rounded=0;whiteSpace=wrap;html=1;fillColor=none;" parent="1" vertex="1">
          <mxGeometry x="610" y="810" width="80" height="20" as="geometry" />
        </mxCell>
        <mxCell id="yn2nVPwPSUITcEasEuQC-1" value="Courses&lt;br&gt;" style="text;html=1;points=[];align=left;verticalAlign=top;spacingTop=-4;fontSize=14;fontFamily=Verdana" parent="1" vertex="1">
          <mxGeometry x="710" y="135" width="60" height="20" as="geometry" />
        </mxCell>
        <mxCell id="yn2nVPwPSUITcEasEuQC-6" value="video" style="rounded=0;whiteSpace=wrap;html=1;fillColor=none;" parent="1" vertex="1">
          <mxGeometry x="174" y="1116" width="286" height="150" as="geometry" />
        </mxCell>
        <mxCell id="yn2nVPwPSUITcEasEuQC-7" value="name" style="rounded=0;whiteSpace=wrap;html=1;fillColor=none;" parent="1" vertex="1">
          <mxGeometry x="277" y="1278" width="80" height="20" as="geometry" />
        </mxCell>
        <mxCell id="yn2nVPwPSUITcEasEuQC-8" value="video" style="rounded=0;whiteSpace=wrap;html=1;fillColor=none;" parent="1" vertex="1">
          <mxGeometry x="640" y="1116" width="286" height="150" as="geometry" />
        </mxCell>
        <mxCell id="yn2nVPwPSUITcEasEuQC-9" value="name" style="rounded=0;whiteSpace=wrap;html=1;fillColor=none;" parent="1" vertex="1">
          <mxGeometry x="743" y="1278" width="80" height="20" as="geometry" />
        </mxCell>
        <mxCell id="yn2nVPwPSUITcEasEuQC-10" value="courses" style="rounded=0;whiteSpace=wrap;html=1;fillColor=none;" parent="1" vertex="1">
          <mxGeometry x="510" y="1060" width="80" height="20" as="geometry" />
        </mxCell>
        <mxCell id="yn2nVPwPSUITcEasEuQC-14" value="email" style="rounded=0;whiteSpace=wrap;html=1;fillColor=none;" parent="1" vertex="1">
          <mxGeometry x="424" y="1471" width="120" height="20" as="geometry" />
        </mxCell>
        <mxCell id="yn2nVPwPSUITcEasEuQC-15" value="text box" style="rounded=0;whiteSpace=wrap;html=1;fillColor=none;" parent="1" vertex="1">
          <mxGeometry x="557" y="1471" width="120" height="20" as="geometry" />
        </mxCell>
        <mxCell id="yn2nVPwPSUITcEasEuQC-16" value="phone number" style="rounded=0;whiteSpace=wrap;html=1;fillColor=none;" parent="1" vertex="1">
          <mxGeometry x="424" y="1508" width="120" height="20" as="geometry" />
        </mxCell>
        <mxCell id="yn2nVPwPSUITcEasEuQC-17" value="text box" style="rounded=0;whiteSpace=wrap;html=1;fillColor=none;" parent="1" vertex="1">
          <mxGeometry x="557" y="1508" width="120" height="20" as="geometry" />
        </mxCell>
        <mxCell id="yn2nVPwPSUITcEasEuQC-18" value="submit button" style="rounded=0;whiteSpace=wrap;html=1;fillColor=none;" parent="1" vertex="1">
          <mxGeometry x="490" y="1546" width="120" height="20" as="geometry" />
        </mxCell>
      </root>
    </mxGraphModel>
  </diagram>
</mxfile>
